<svg xmlns="http://www.w3.org/2000/svg" width="52" height="52" viewBox="0 0 52 52">
  <g id="Twitter" transform="translate(-1126 -1633)">
    <circle id="Ellipse_1" data-name="Ellipse 1" cx="26" cy="26" r="26" transform="translate(1126 1633)" fill="#fff" opacity="0.3"/>
    <path id="Path_7" data-name="Path 7" d="M13.914-22.112v3.83H11.636a2.132,2.132,0,0,0-1.683.522,2.4,2.4,0,0,0-.435,1.567v2.742h4.251L13.2-9.155H9.518V1.857H5.078V-9.155h-3.7V-13.45h3.7v-3.163A5.612,5.612,0,0,1,6.587-20.8a5.476,5.476,0,0,1,4.019-1.487A24,24,0,0,1,13.914-22.112Z" transform="translate(1145 1669)" fill="#fff" stroke="rgba(0,0,0,0)" stroke-width="1"/>
  </g>
</svg>
