<svg xmlns="http://www.w3.org/2000/svg" width="52" height="52" viewBox="0 0 52 52">
  <g id="Twitter" transform="translate(-1126 -1633)">
    <circle id="Ellipse_1" data-name="Ellipse 1" cx="26" cy="26" r="26" transform="translate(1126 1633)" fill="#fff" opacity="0.3"/>
    <path id="Path_6" data-name="Path 6" d="M23.5-16.366a9.82,9.82,0,0,1-2.35,2.423q.015.2.015.609a13.313,13.313,0,0,1-.551,3.765,13.607,13.607,0,0,1-1.676,3.605,14.173,14.173,0,0,1-2.677,3.054A11.918,11.918,0,0,1,12.521-.791,13.7,13.7,0,0,1,7.835,0a13.014,13.014,0,0,1-7.2-2.1,10.03,10.03,0,0,0,1.132.058,9.175,9.175,0,0,0,5.818-2A4.569,4.569,0,0,1,4.86-4.984,4.584,4.584,0,0,1,3.206-7.3a5.937,5.937,0,0,0,.885.073,4.848,4.848,0,0,0,1.233-.16A4.611,4.611,0,0,1,2.633-9a4.528,4.528,0,0,1-1.066-2.982v-.058a4.649,4.649,0,0,0,2.118.595,4.681,4.681,0,0,1-1.523-1.669A4.566,4.566,0,0,1,1.6-15.35a4.592,4.592,0,0,1,.638-2.365,13.285,13.285,0,0,0,4.273,3.46,13.058,13.058,0,0,0,5.39,1.444,5.205,5.205,0,0,1-.116-1.074A4.516,4.516,0,0,1,13.152-17.2a4.516,4.516,0,0,1,3.315-1.371,4.518,4.518,0,0,1,3.424,1.48,9.189,9.189,0,0,0,2.974-1.132,4.55,4.55,0,0,1-2.06,2.583A9.338,9.338,0,0,0,23.5-16.366Z" transform="translate(1140 1669)" fill="#fff" stroke="rgba(0,0,0,0)" stroke-width="1"/>
  </g>
</svg>
